<?xml version="1.0" encoding="UTF-8"?>
<!-- Generator: visioncortex VTracer 0.6.4 -->
<svg version="1.1" xmlns="http://www.w3.org/2000/svg" width="1024" height="1024">
<path d="M0 0 C337.92 0 675.84 0 1024 0 C1024 337.92 1024 675.84 1024 1024 C686.08 1024 348.16 1024 0 1024 C0 686.08 0 348.16 0 0 Z " fill="#FCFBF9" transform="translate(0,0)"/>
<path d="M0 0 C8.58 0 17.16 0 26 0 C26 11.55 26 23.1 26 35 C33.26 35 40.52 35 48 35 C48 23.45 48 11.9 48 0 C56.25 0 64.5 0 73 0 C73 11.88 73 23.76 73 36 C76.96 36.66 80.92 37.32 85 38 C98.58963224 42.22788559 109.0235885 48.13264448 115.8125 61 C119.40507437 68.25871682 120.36823935 75.33288693 120.3125 83.3125 C120.30512817 84.56426025 120.30512817 84.56426025 120.29760742 85.84130859 C120.06550584 98.09865257 116.32765797 108.81086017 108 118 C103.99377103 120.00311449 100.2264838 119.37750644 96.09375 118.10546875 C93.37589561 117.11429247 90.68122452 116.08606563 88 115 C88.52302564 111.12961025 89.43098857 107.53794801 90.5625 103.8125 C92.99348315 94.81423402 92.43575849 87.47145646 89.8125 78.625 C89.6165625 77.94671143 89.420625 77.26842285 89.21875 76.56958008 C87.17557195 70.25437368 83.50697974 66.41394679 77.6875 63.375 C59.90615006 55.09792521 34.81819422 55.31454681 16.5546875 61.87890625 C8.19651035 65.67663313 2.59603597 71.5823128 -1 80 C-2.91450368 85.51511412 -3.38657083 90.47673599 -3.375 96.25 C-3.37338867 97.08684326 -3.37177734 97.92368652 -3.37011719 98.78588867 C-3.14747026 110.06339227 0.66605476 118.94445031 8.75 126.875 C20.61763353 137.06949176 37.01102797 142.12223699 51.48828125 147.34765625 C85.78742671 159.75952916 85.78742671 159.75952916 92.375 171.4375 C94.26824816 179.19981744 92.47698609 185.00968301 89 192 C83.86876473 200.36201303 74.08787283 204.41294131 65 207 C58.61200729 208.22568456 52.36028932 208.22174166 45.875 208.25 C44.13476562 208.2809375 44.13476562 208.2809375 42.359375 208.3125 C31.61697064 208.36056445 20.49291171 207.21257326 12 200 C7.5782402 194.29450348 7.86293499 188.08377399 7.9375 181.1875 C7.958125 178.485625 7.97875 175.78375 8 173 C13.94 173 19.88 173 26 173 C26.515625 174.69125 27.03125 176.3825 27.5625 178.125 C29.97966469 184.67745342 32.83741291 187.87821436 39.0078125 191.0234375 C44.77175328 193.21252999 50.65791305 193.30178339 56.75 193.375 C57.56629883 193.38901855 58.38259766 193.40303711 59.22363281 193.41748047 C64.21694733 193.37762389 67.66718813 192.74006483 72 190 C74.63479064 186.6466301 74.42669475 183.12471594 74 179 C70.60014365 171.75682777 64.25346579 168.16076747 57.0078125 165.4296875 C52.38640774 163.78942147 47.70508368 162.37794575 43 161 C42.319375 160.79068848 41.63875 160.58137695 40.9375 160.36572266 C27.52853571 156.30512112 13.92513609 156.18628945 0 156 C0.0445521 161.06856944 0.11479332 166.13593995 0.20751953 171.20385742 C0.23551754 172.9231607 0.25683592 174.64258763 0.27099609 176.36206055 C0.18897597 192.75614147 0.18897597 192.75614147 7.5625 206.9375 C17.96697341 214.15266247 31.91416037 215.38492456 44.1875 215.3125 C45.18563721 215.30758545 46.18377441 215.3026709 47.2121582 215.29760742 C62.84400042 215.0526336 80.37651914 212.46129276 92 201 C99.46519663 191.77598741 100.99622128 181.61790452 100 170 C98.79110371 163.94462761 94.64488238 158.87940577 90 155 C77.59088251 147.44158771 63.61864942 142.88388326 49.91015625 138.2890625 C14.73840898 126.43628788 14.73840898 126.43628788 7 111.875 C5.38772663 108.22937843 4.25062182 105.00994905 4 101 C3.94972656 100.26265625 3.89945313 99.5253125 3.84765625 98.765625 C3.49607001 89.70876339 5.45852784 81.82860341 11.28125 74.75 C17.12076332 68.80431371 24.02647433 66.76777391 32 65 C32.969375 64.773125 33.93875 64.54625 34.9375 64.3125 C50.30449406 62.74443938 67.17965953 63.98547109 80.0625 73.1875 C86.1853902 82.07556643 85.57497146 92.63945663 85 103 C84 106 84 106 82 107 C79.44842345 107.0716735 76.92527029 107.09308442 74.375 107.0625 C73.66859375 107.05798828 72.9621875 107.05347656 72.234375 107.04882812 C70.48954725 107.03703875 68.744763 107.01910324 67 107 C66.94392578 105.69675781 66.94392578 105.69675781 66.88671875 104.3671875 C66.43294773 96.41284836 66.07312118 91.07312118 60.25 85.25 C53.69330952 80.71075275 46.7696531 80.24998824 39 81 C35.29520521 82.25698395 33.60978587 83.26825695 31.125 86.25 C29.66982123 89.80710366 29.53111318 92.18192158 30 96 C34.27146387 104.06832065 41.40243952 108.13980551 49.81738281 110.9362793 C50.85217773 111.24992432 51.88697266 111.56356934 52.953125 111.88671875 C54.10296875 112.23524902 55.2528125 112.5837793 56.4375 112.94287109 C60.91075154 114.27025453 65.39529612 115.55591818 69.88110352 116.84008789 C114.11095364 129.60677338 114.11095364 129.60677338 124.6015625 147.7734375 C128.62894535 156.36989797 130.39122092 164.16982522 130.375 173.625 C130.37338867 174.59904785 130.37177734 175.5730957 130.37011719 176.57666016 C130.23793442 184.37673953 129.09624925 190.78261064 126 198 C125.72285156 198.72832031 125.44570313 199.45664062 125.16015625 200.20703125 C122.47775143 206.47421669 117.71892148 211.19204227 113 216 C112.44441406 216.58007812 111.88882813 217.16015625 111.31640625 217.7578125 C101.95400251 226.67661108 85.7978261 232 73 232 C73 242.56 73 253.12 73 264 C64.75 264 56.5 264 48 264 C48 254.1 48 244.2 48 234 C41.59810129 234.0394449 41.59810129 234.0394449 35.19628906 234.09008789 C34.39416992 234.09258545 33.59205078 234.09508301 32.765625 234.09765625 C31.54020996 234.10551147 31.54020996 234.10551147 30.29003906 234.11352539 C28 234 28 234 24 233 C24 243.23 24 253.46 24 264 C15.75 264 7.5 264 -1 264 C-1 252.78 -1 241.56 -1 230 C-17.17 230 -33.34 230 -50 230 C-50 221.75 -50 213.5 -50 205 C-39.25 204.75 -39.25 204.75 -35.87988281 204.70214844 C-34.99655273 204.6715332 -34.11322266 204.64091797 -33.203125 204.609375 C-32.30239258 204.58842773 -31.40166016 204.56748047 -30.47363281 204.54589844 C-27.19136195 203.82154415 -26.10501128 202.59299974 -24 200 C-23.40512535 197.38076043 -23.40512535 197.38076043 -23.49879456 194.46546936 C-23.48896042 193.33969986 -23.47912628 192.21393036 -23.46899414 191.05404663 C-23.47866211 189.823284 -23.48833008 188.59252136 -23.49829102 187.32446289 C-23.49288803 186.02493179 -23.48748505 184.7254007 -23.48191833 183.38648987 C-23.46795685 179.82435133 -23.4791385 176.26269544 -23.49562955 172.7005837 C-23.50948368 168.97131935 -23.50301945 165.24208292 -23.49949646 161.51280212 C-23.49679428 155.24909696 -23.51026933 148.9855834 -23.53344727 142.72192383 C-23.56004557 135.48391328 -23.56180789 128.24622334 -23.5500589 121.00818068 C-23.53927217 114.04241914 -23.54547594 107.07677339 -23.55961418 100.11102104 C-23.56536742 97.14820043 -23.56529651 94.18546474 -23.56054878 91.2226429 C-23.55488181 87.08322889 -23.57411538 82.94429189 -23.59594727 78.80493164 C-23.59144562 77.57619324 -23.58694397 76.34745483 -23.58230591 75.08148193 C-23.59221054 73.95289261 -23.60211517 72.82430328 -23.61231995 71.66151428 C-23.61474984 70.68315644 -23.61717974 69.7047986 -23.61968327 68.69679356 C-24.07090286 65.49723388 -25.11384392 63.60241555 -27 61 C-29.40541929 59.79729036 -31.10366591 59.79683337 -33.7890625 59.68359375 C-34.63678223 59.64548584 -35.48450195 59.60737793 -36.35791016 59.56811523 C-37.4360498 59.52501221 -38.51418945 59.48190918 -39.625 59.4375 C-43.04875 59.293125 -46.4725 59.14875 -50 59 C-50 51.08 -50 43.16 -50 35 C-33.5 35 -17 35 0 35 C0 23.45 0 11.9 0 0 Z " fill="#DC971F" transform="translate(174,335)"/>
<path d="M0 0 C61.82352941 0 61.82352941 0 71 6 C71.886875 6.5775 72.77375 7.155 73.6875 7.75 C80.11728704 14.00600901 82.98685516 21.39768955 83.375 30.3125 C83.22166247 36.87895407 81.77370024 42.8916538 77.31640625 47.88671875 C74.40934999 50.46868485 71.51424982 52.33535535 68 54 C69.08667969 54.61875 69.08667969 54.61875 70.1953125 55.25 C78.72689583 60.34619911 84.33125844 65.21461429 87 75 C87.99247702 85.9945831 86.91924822 95.42622824 79.84765625 104.1484375 C73.01920326 110.99132697 65.42213324 112.64446669 56 115 C37.52 115 19.04 115 0 115 C0 77.05 0 39.1 0 0 Z " fill="#092746" transform="translate(370,363)"/>
<path d="M0 0 C6.1228902 8.88806643 5.51247146 19.45195663 4.9375 29.8125 C3.9375 32.8125 3.9375 32.8125 1.9375 33.8125 C-0.61407655 33.8841735 -3.13722971 33.90558442 -5.6875 33.875 C-6.39390625 33.87048828 -7.1003125 33.86597656 -7.828125 33.86132812 C-9.57295275 33.84953875 -11.317737 33.83160324 -13.0625 33.8125 C-13.11857422 32.50925781 -13.11857422 32.50925781 -13.17578125 31.1796875 C-13.62955227 23.22534836 -13.98937882 17.88562118 -19.8125 12.0625 C-26.36919048 7.52325275 -33.2928469 7.06248824 -41.0625 7.8125 C-44.76729479 9.06948395 -46.45271413 10.08075695 -48.9375 13.0625 C-50.39267877 16.61960366 -50.53138682 18.99442158 -50.0625 22.8125 C-45.79103613 30.88082065 -38.66006048 34.95230551 -30.24511719 37.7487793 C-29.21032227 38.06242432 -28.17552734 38.37606934 -27.109375 38.69921875 C-25.95953125 39.04774902 -24.8096875 39.3962793 -23.625 39.75537109 C-19.15174846 41.08275453 -14.66720388 42.36841818 -10.18139648 43.65258789 C34.04845364 56.41927338 34.04845364 56.41927338 44.5390625 74.5859375 C48.56644535 83.18239797 50.32872092 90.98232522 50.3125 100.4375 C50.31088867 101.41154785 50.30927734 102.3855957 50.30761719 103.38916016 C50.17543442 111.18923953 49.03374925 117.59511064 45.9375 124.8125 C45.66035156 125.54082031 45.38320313 126.26914062 45.09765625 127.01953125 C42.41525143 133.28671669 37.65642148 138.00454227 32.9375 142.8125 C32.38191406 143.39257812 31.82632813 143.97265625 31.25390625 144.5703125 C21.51430981 153.8484318 5.14826732 158.8125 -8.0625 158.8125 C-8.0625 152.2125 -8.0625 145.6125 -8.0625 138.8125 C-6.2475 138.11125 -4.4325 137.41 -2.5625 136.6875 C7.51162664 132.45138314 13.1907978 127.62316548 17.90625 117.79296875 C20.87829265 110.37662159 21.67646988 100.52408923 18.875 92.9375 C8.40699785 76.05362556 -12.20414992 71.1174486 -30.15234375 65.1015625 C-65.32409102 53.24878788 -65.32409102 53.24878788 -73.0625 38.6875 C-74.67477337 35.04187843 -75.81187818 31.82244905 -76.0625 27.8125 C-76.11277344 27.07515625 -76.16304687 26.3378125 -76.21484375 25.578125 C-76.56642999 16.52126339 -74.60397216 8.64110341 -68.78125 1.5625 C-62.94173668 -4.38318629 -56.03602567 -6.41972609 -48.0625 -8.1875 C-47.093125 -8.414375 -46.12375 -8.64125 -45.125 -8.875 C-29.75800594 -10.44306062 -12.88284047 -9.20202891 0 0 Z " fill="#0A2847" transform="translate(254.0625,408.1875)"/>
<path d="M0 0 C9.04567 6.47734584 14.2053252 16.10791883 16.8671875 26.7890625 C18.66534945 38.64225253 16.92841316 51.17839632 10.25 61.3125 C3.19058741 70.71540612 -4.34471407 75.59695573 -15.75 78.3125 C-28.12203384 79.58071029 -39.55603576 78.81580344 -50 71.5625 C-59.61681169 63.71928063 -65.37603629 54.7116847 -66.75 42.3125 C-67.64373364 30.12522311 -66.68255049 17.84782928 -58.50390625 8.15234375 C-42.58308328 -8.54856409 -20.05158321 -12.05781972 0 0 Z " fill="#0A2746" transform="translate(715.75,400.6875)"/>
<path d="M0 0 C5.55225957 4.30798998 8.61248664 9.90921721 10.03515625 16.74609375 C10.14881544 18.70069423 10.21119693 20.6585276 10.24047852 22.61621094 C10.27039635 24.3875943 10.27039635 24.3875943 10.30091858 26.19476318 C10.31763107 27.46467102 10.33434357 28.73457886 10.3515625 30.04296875 C10.3723436 31.34687561 10.39312469 32.65078247 10.41453552 33.99420166 C10.46960861 37.45305183 10.51908265 40.91196015 10.56738281 44.37091064 C10.61770597 47.90357613 10.67333547 51.43615764 10.72851562 54.96875 C10.83591649 61.8944599 10.93691058 68.82024799 11.03515625 75.74609375 C4.10515625 75.74609375 -2.82484375 75.74609375 -9.96484375 75.74609375 C-9.97942627 74.20751709 -9.99400879 72.66894043 -10.0090332 71.08374023 C-10.06712743 65.36019985 -10.14436054 59.63704827 -10.22729492 53.91381836 C-10.26049179 51.43959883 -10.28853993 48.96530453 -10.3112793 46.4909668 C-10.34492076 42.92855041 -10.39724362 39.36681603 -10.453125 35.8046875 C-10.45951492 34.70337997 -10.46590485 33.60207245 -10.4724884 32.46739197 C-10.58602589 26.49889031 -10.95584686 21.96491287 -13.96484375 16.74609375 C-18.6478383 13.62409738 -23.48693111 14.04416835 -28.96484375 14.74609375 C-32.54464569 16.33484394 -34.45089013 18.62004574 -36.08740234 22.20556641 C-37.33275355 27.2306313 -37.32281946 32.10949804 -37.37890625 37.26953125 C-37.3982724 38.37084381 -37.41763855 39.47215637 -37.43759155 40.60684204 C-37.49719303 44.11151474 -37.54369537 47.61622063 -37.58984375 51.12109375 C-37.62804137 53.5026182 -37.66709414 55.88412909 -37.70703125 58.265625 C-37.80287879 64.09233737 -37.88698189 69.9191144 -37.96484375 75.74609375 C-44.56484375 75.74609375 -51.16484375 75.74609375 -57.96484375 75.74609375 C-57.99457275 73.52910767 -57.99457275 73.52910767 -58.02490234 71.26733398 C-58.10115344 65.76749046 -58.18984095 60.26790476 -58.28222656 54.76831055 C-58.32043575 52.3910838 -58.3553025 50.01380083 -58.38671875 47.63647461 C-58.43254414 44.21317494 -58.49051043 40.79025964 -58.55078125 37.3671875 C-58.56233246 36.30962753 -58.57388367 35.25206757 -58.58578491 34.16246033 C-58.70854268 24.62864368 -58.70854268 24.62864368 -62.90234375 16.30859375 C-67.55918918 13.9326522 -71.84340957 14.02412946 -76.96484375 14.74609375 C-81.30653142 16.60681704 -82.57394948 17.91882915 -84.58911133 22.18359375 C-86.45848299 27.47569431 -86.44207113 32.68355234 -86.4765625 38.24609375 C-86.4945137 39.32238037 -86.5124649 40.39866699 -86.53096008 41.50756836 C-86.58482376 44.92037118 -86.6188824 48.33303606 -86.65234375 51.74609375 C-86.6855379 54.07033159 -86.72002948 56.39455129 -86.75585938 58.71875 C-86.84053671 64.39443135 -86.90746218 70.07007347 -86.96484375 75.74609375 C-93.56484375 75.74609375 -100.16484375 75.74609375 -106.96484375 75.74609375 C-106.96484375 50.00609375 -106.96484375 24.26609375 -106.96484375 -2.25390625 C-100.69484375 -2.25390625 -94.42484375 -2.25390625 -87.96484375 -2.25390625 C-87.63484375 0.38609375 -87.30484375 3.02609375 -86.96484375 5.74609375 C-86.54074219 5.34777344 -86.11664062 4.94945312 -85.6796875 4.5390625 C-77.82075207 -2.55988796 -72.14211859 -3.77894552 -61.56640625 -3.5390625 C-54.17948002 -2.95419741 -49.28787521 -0.31727764 -43.96484375 4.74609375 C-43.46984375 5.73609375 -43.46984375 5.73609375 -42.96484375 6.74609375 C-40.07728107 5.43413592 -38.00304745 3.9912735 -35.71484375 1.80859375 C-25.93147909 -6.63317027 -10.84256487 -6.91941018 0 0 Z " fill="#082644" transform="translate(813.96484375,531.25390625)"/>
<path d="M0 0 C10.11273786 7.10321698 13.9777752 15.74959777 16.61328125 27.609375 C9.68328125 27.609375 2.75328125 27.609375 -4.38671875 27.609375 C-5.06734375 26.041875 -5.74796875 24.474375 -6.44921875 22.859375 C-9.02949849 17.6768245 -11.08558435 15.82621302 -16.38671875 13.609375 C-22.86007933 11.56295778 -30.65231648 11.66647767 -37.01171875 13.859375 C-40.86103275 16.69571163 -42.42289338 18.84945293 -43.26171875 23.546875 C-43.52074869 26.45016894 -43.37833261 27.63034035 -42.26171875 30.421875 C-38.45665427 34.86111689 -33.85439256 36.21568465 -28.3203125 37.66015625 C-26.93287081 38.03293562 -25.54550345 38.40599173 -24.15820312 38.77929688 C-22.00305809 39.34966904 -19.84698084 39.91596388 -17.68920898 40.47631836 C8.59191191 47.34135571 8.59191191 47.34135571 14.61328125 57.609375 C18.85321939 66.02427138 18.90220552 75.48554601 16.05078125 84.359375 C12.4928847 93.00531243 5.99736349 99.49620007 -2.38671875 103.609375 C-9.6784289 106.44532216 -16.48222882 107.12481217 -24.26171875 107.046875 C-25.84835327 107.03551514 -25.84835327 107.03551514 -27.46704102 107.02392578 C-39.91633443 106.76086521 -49.83502435 103.48530256 -59.1328125 95.01953125 C-65.34018141 88.44064899 -67.38671875 81.53447806 -67.38671875 72.609375 C-60.78671875 72.609375 -54.18671875 72.609375 -47.38671875 72.609375 C-46.68546875 74.176875 -45.98421875 75.744375 -45.26171875 77.359375 C-42.31727542 83.21517802 -39.28929107 85.47111135 -33.19921875 87.859375 C-25.90831371 89.2936514 -18.33311288 89.52686054 -11.38671875 86.609375 C-8.307335 83.99859313 -6.66580784 82.44664228 -5.38671875 78.609375 C-5.04168918 74.33100837 -4.85146552 71.73085796 -6.69921875 67.859375 C-14.57001448 61.2698716 -27.04750253 59.77048862 -36.80273438 57.4296875 C-46.54333638 54.94419425 -55.6903318 51.32149622 -61.38671875 42.609375 C-66.01618304 34.22133574 -66.96106451 25.64557627 -64.5390625 16.359375 C-61.08486132 6.99204976 -55.45703368 1.7846866 -46.63671875 -2.56640625 C-32.28038416 -7.82541076 -13.40404493 -7.80988542 0 0 Z " fill="#0A2746" transform="translate(427.38671875,502.390625)"/>
<path d="M0 0 C5.738003 4.81944535 9.20335425 10.94963546 10.5625 18.3125 C10.83347128 22.69810562 10.79526424 27.07233904 10.7578125 31.46484375 C10.7549826 32.72011368 10.75215271 33.97538361 10.74923706 35.26869202 C10.73997127 38.58464347 10.72204299 41.90031301 10.6998291 45.21618652 C10.67926595 48.60829245 10.67021309 52.00042766 10.66015625 55.39257812 C10.63815121 62.0326392 10.60364964 68.67253109 10.5625 75.3125 C3.9625 75.3125 -2.6375 75.3125 -9.4375 75.3125 C-9.9325 71.8475 -9.9325 71.8475 -10.4375 68.3125 C-10.82679688 68.71082031 -11.21609375 69.10914063 -11.6171875 69.51953125 C-17.83172723 75.40472901 -24.39565906 77.37502201 -32.875 77.75 C-39.75807941 77.50660964 -46.29857498 76.01186281 -51.61328125 71.44140625 C-57.08006338 65.45397821 -58.93123188 60.30729754 -58.74609375 52.2265625 C-58.06685509 45.81248602 -55.96388216 40.31255414 -51.1875 35.875 C-39.40948493 27.05391276 -23.44106076 28.01062683 -9.4375 28.3125 C-9.70620961 22.26653384 -10.36463021 18.08357604 -14.4375 13.3125 C-18.87418538 10.55967389 -23.371236 10.67221387 -28.4375 11.3125 C-33.97032327 13.92801645 -34.54577216 15.52904431 -37.4375 21.3125 C-43.7075 21.3125 -49.9775 21.3125 -56.4375 21.3125 C-54.31457135 11.75932107 -52.21816059 5.72084237 -44.25 -0.0625 C-31.3959795 -7.80070632 -12.66711872 -8.72201233 0 0 Z " fill="#092645" transform="translate(894.4375,531.6875)"/>
<path d="M0 0 C7.5443133 6.15008702 11.87606988 15.06784941 13.75 24.4375 C13.75 29.7175 13.75 34.9975 13.75 40.4375 C-4.07 40.4375 -21.89 40.4375 -40.25 40.4375 C-37.76640529 49.80049438 -37.76640529 49.80049438 -32.25 56.4375 C-26.98672313 59.01164045 -21.99832452 58.97851878 -16.25 58.4375 C-12.40564156 57.1094489 -10.79013129 56.35947217 -8.73046875 52.84375 C-5.8936392 50.09180196 -5.26979882 50.07109725 -1.484375 49.94921875 C0.3443887 49.98234853 2.17282812 50.04183041 4 50.125 C4.93585938 50.14755859 5.87171875 50.17011719 6.8359375 50.19335938 C9.14225674 50.25219405 11.44530838 50.33432854 13.75 50.4375 C10.28747648 60.55744164 6.26667355 66.89880382 -3.4375 71.875 C-13.42933982 76.58232377 -25.74150011 77.3906053 -36.3125 73.8125 C-46.30161097 69.49902026 -53.61417855 62.34548751 -58.390625 52.625 C-60.78275346 46.53594573 -61.61047106 41.09355515 -61.5625 34.625 C-61.55686035 33.83037354 -61.5512207 33.03574707 -61.54541016 32.21704102 C-61.31302922 20.96037031 -57.95372671 12.48495412 -50.17578125 4.23828125 C-36.24204603 -8.91730471 -16.12053169 -10.65437439 0 0 Z " fill="#092644" transform="translate(682.25,533.5625)"/>
<path d="M0 0 C6.6 0 13.2 0 20 0 C20.495 19.8 20.495 19.8 21 40 C23.31 38.02 25.62 36.04 28 34 C36.56930323 29.42807502 44.96593478 28.73816771 54.25 31.25 C62.47450753 34.05147288 66.92796799 38.42013319 71 46 C72.59499149 50.14951461 73.24642722 53.56816605 73.22705078 58.00537109 C73.22689972 59.16612152 73.22674866 60.32687195 73.22659302 61.52279663 C73.21627045 62.76050812 73.20594788 63.9982196 73.1953125 65.2734375 C73.1924826 66.55231842 73.18965271 67.83119934 73.18673706 69.14883423 C73.1774602 72.53220099 73.15952183 75.91529326 73.1373291 79.29858398 C73.11679041 82.75762574 73.10771826 86.21669596 73.09765625 89.67578125 C73.07563197 96.45060591 73.04112034 103.22526541 73 110 C66.4 110 59.8 110 53 110 C52.9906543 108.49695313 52.98130859 106.99390625 52.97167969 105.4453125 C52.93168202 99.84654561 52.86589493 94.24832254 52.79248047 88.64990234 C52.76432769 86.23102832 52.74308498 83.81206327 52.72900391 81.39306641 C52.70749633 77.90740551 52.66080307 74.42283248 52.609375 70.9375 C52.60814636 69.86322754 52.60691772 68.78895508 52.60565186 67.68212891 C52.48689595 61.53642007 52.02057266 55.93000904 48 51 C43.00838627 47.97684667 37.65601375 48.42920962 32 49 C28.36764356 49.96131636 25.91514326 51.54815701 23.85345459 54.81895447 C20.90869469 61.0734105 20.39902021 66.52211506 20.390625 73.37890625 C20.37408875 74.43158188 20.35755249 75.48425751 20.34051514 76.5688324 C20.2922942 79.90011582 20.27072133 83.2309436 20.25 86.5625 C20.22181874 88.83400698 20.19188832 91.10549297 20.16015625 93.37695312 C20.08654188 98.9179312 20.03680899 104.45866016 20 110 C13.4 110 6.8 110 0 110 C0 73.7 0 37.4 0 0 Z " fill="#082544" transform="translate(538,497)"/>
<path d="M0 0 C7.41287507 4.94191671 11.64798841 10.4351276 14 19 C14.1754686 19.58557678 14.35093719 20.17115356 14.53172302 20.7744751 C15.10915806 23.51878268 15.11951982 26.06472382 15.11352539 28.87011719 C15.11341209 30.64150055 15.11341209 30.64150055 15.11329651 32.44866943 C15.10813522 33.71857727 15.10297394 34.98848511 15.09765625 36.296875 C15.0962413 37.60078186 15.09482635 38.90468872 15.09336853 40.24810791 C15.08955867 43.70703055 15.07974151 47.16591091 15.06866455 50.62481689 C15.05841746 54.15742419 15.05386385 57.69003836 15.04882812 61.22265625 C15.03811782 68.14845658 15.02053346 75.0742219 15 82 C8.07 82 1.14 82 -6 82 C-6.01458252 80.36530762 -6.02916504 78.73061523 -6.04418945 77.04638672 C-6.10221478 70.97438822 -6.17944847 64.9027589 -6.26245117 58.83105469 C-6.29568038 56.20448809 -6.3237185 53.57785043 -6.34643555 50.95117188 C-6.38001728 47.17286939 -6.43233753 43.39521695 -6.48828125 39.6171875 C-6.49467117 38.44509735 -6.5010611 37.2730072 -6.50764465 36.06539917 C-6.63191289 28.11073385 -6.63191289 28.11073385 -10 21 C-14.10473014 17.10576884 -16.77024943 16.21439909 -22.25 15.6875 C-28.04558767 16.17046564 -32.16769523 18.26413233 -36.375 22.25 C-40.44679777 29.14073469 -40.32686015 36.72036392 -40.4140625 44.5 C-40.43342865 45.57628662 -40.4527948 46.65257324 -40.4727478 47.76147461 C-40.53217541 51.17423765 -40.57878126 54.58703509 -40.625 58 C-40.66321367 60.32423286 -40.70226734 62.64845207 -40.7421875 64.97265625 C-40.83784659 70.64832568 -40.92201291 76.32406135 -41 82 C-47.6 82 -54.2 82 -61 82 C-61 54.61 -61 27.22 -61 -1 C-54.4 -1 -47.8 -1 -41 -1 C-40.67 1.64 -40.34 4.28 -40 7 C-39.0925 6.0925 -38.185 5.185 -37.25 4.25 C-27.00735435 -4.48211407 -12.02819067 -5.37247777 0 0 Z " fill="#092644" transform="translate(844,396)"/>
<path d="M0 0 C4.80383128 4.69465329 8.14454161 10.11971569 9.75 16.6875 C9.75 18.3375 9.75 19.9875 9.75 21.6875 C3.15 21.6875 -3.45 21.6875 -10.25 21.6875 C-11.57 19.0475 -12.89 16.4075 -14.25 13.6875 C-19.58550226 8.61226614 -24.18974251 8.33762719 -31.30078125 8.40625 C-36.48298274 8.9004467 -39.00639299 11.40934835 -42.5 15 C-47.69622183 22.97991209 -47.11770696 33.52035633 -46.25 42.6875 C-45.08215394 47.94596359 -43.48504303 51.48186276 -39.625 55.25 C-33.83046019 58.75722146 -27.89818771 58.20004185 -21.25 57.6875 C-17.9596018 56.8250751 -16.93144737 56.01919337 -14.25 53.6875 C-12.93 51.0475 -11.61 48.4075 -10.25 45.6875 C-3.65 45.6875 2.95 45.6875 9.75 45.6875 C7.14410063 57.41404718 2.62302187 64.71182426 -7.25 71.6875 C-16.92935912 77.38596184 -29.87215057 77.20221419 -40.63671875 74.9921875 C-50.52155455 71.71102861 -57.71884418 65.43346466 -63.25 56.6875 C-69.27246709 44.58781611 -70.61982065 29.05809913 -66.625 16.0625 C-62.9397634 6.72055408 -56.2860663 -1.27484375 -47.24609375 -5.82421875 C-30.05604461 -13.18535636 -15.1511699 -10.78064012 0 0 Z " fill="#0A2745" transform="translate(631.25,403.3125)"/>
<path d="M0 0 C7.3998871 5.18826671 12.20113287 10.95375235 14.765625 19.64453125 C14.765625 20.96453125 14.765625 22.28453125 14.765625 23.64453125 C7.835625 23.64453125 0.905625 23.64453125 -6.234375 23.64453125 C-7.224375 21.00453125 -8.214375 18.36453125 -9.234375 15.64453125 C-13.30162613 11.82378019 -18.8494961 11.52961005 -24.234375 11.64453125 C-28.94494554 12.41327019 -32.14776494 14.05878462 -35.109375 17.83203125 C-40.02265331 25.77268307 -40.41110854 35.45164888 -38.69921875 44.4609375 C-37.02508598 50.59942432 -34.96305132 54.76044522 -29.609375 58.45703125 C-23.88603747 60.47079816 -18.60863281 60.43595052 -12.859375 58.51953125 C-8.83907414 55.64788778 -6.78345147 52.29176066 -5.234375 47.64453125 C1.365625 47.64453125 7.965625 47.64453125 14.765625 47.64453125 C12.43432173 58.13539597 8.85821269 65.60734752 -0.234375 71.64453125 C-10.32583681 76.98103309 -21.21160699 78.36932781 -32.4140625 75.9609375 C-43.07910499 72.32032101 -50.87255597 66.67363316 -56.234375 56.64453125 C-61.82699435 43.9039487 -62.08936069 29.68887016 -57.234375 16.64453125 C-52.73356723 6.88577048 -46.2268109 0.47233747 -36.3125 -3.62890625 C-24.54123252 -7.74442458 -10.60667253 -6.43446743 0 0 Z " fill="#0A2746" transform="translate(513.234375,532.35546875)"/>
<path d="M0 0 C6.93 0 13.86 0 21 0 C21 6.6 21 13.2 21 20 C27.27 20 33.54 20 40 20 C40 25.28 40 30.56 40 36 C33.73 36 27.46 36 21 36 C21.0971233 41.58714575 21.19997128 47.17358223 21.31738281 52.76025391 C21.35557692 54.65927778 21.39044625 56.55837164 21.421875 58.45751953 C21.46773387 61.19328763 21.52569337 63.92857792 21.5859375 66.6640625 C21.59748871 67.50804596 21.60903992 68.35202942 21.62094116 69.22158813 C21.73532085 73.82895053 22.13908404 77.70235016 24 82 C27.08538188 84.37657793 30.44907576 84.37711364 34.25 84.625 C36.1475 84.74875 38.045 84.8725 40 85 C40 90.94 40 96.88 40 103 C13.59682104 103.69212217 13.59682104 103.69212217 4.47265625 95.890625 C-0.55466779 89.43644772 -0.40571362 83.01999544 -0.29296875 75.16015625 C-0.28872391 74.03806259 -0.28447906 72.91596893 -0.28010559 71.75987244 C-0.26338097 68.19383233 -0.22573922 64.62836785 -0.1875 61.0625 C-0.17244517 58.63737798 -0.15875817 56.21224706 -0.14648438 53.78710938 C-0.11349764 47.85785284 -0.06175737 41.92902385 0 36 C-4.29 36 -8.58 36 -13 36 C-13 30.72 -13 25.44 -13 20 C-8.71 20 -4.42 20 0 20 C0 13.4 0 6.8 0 0 Z " fill="#092644" transform="translate(517,375)"/>
<path d="M0 0 C7.26 0 14.52 0 22 0 C22 27.39 22 54.78 22 83 C14.74 83 7.48 83 0 83 C0 55.61 0 28.22 0 0 Z " fill="#0A2645" transform="translate(470,395)"/>
<path d="M0 0 C6.75505887 5.10748354 10.07141752 10.56738992 11.5625 18.9375 C12.43284391 27.94486874 11.42281504 36.77489273 5.5625 43.9375 C-0.33149967 49.64586188 -5.11154117 50.36270533 -13.13671875 50.2734375 C-17.9479944 49.78376921 -21.00618358 48.32014526 -24.4375 44.9375 C-31.35591383 36.18111157 -31.16216995 26.66798314 -30.4375 15.9375 C-29.40072121 9.98041509 -26.01939774 4.84372618 -21.4375 0.9375 C-14.9681694 -2.37982285 -6.82769653 -2.11037893 0 0 Z " fill="#F9F9F7" transform="translate(700.4375,412.0625)"/>
<path d="M0 0 C6.93 0 13.86 0 21 0 C21 27.39 21 54.78 21 83 C14.07 83 7.14 83 0 83 C0 55.61 0 28.22 0 0 Z " fill="#082644" transform="translate(746,395)"/>
<path d="M0 0 C-0.825 0.721875 -1.65 1.44375 -2.5 2.1875 C-5.55363653 4.99567471 -5.55363653 4.99567471 -5 10 C-9.62 10.33 -14.24 10.66 -19 11 C-19 11.66 -19 12.32 -19 13 C-19.56589844 13.26554688 -20.13179687 13.53109375 -20.71484375 13.8046875 C-21.44832031 14.15789063 -22.18179688 14.51109375 -22.9375 14.875 C-23.66839844 15.22304688 -24.39929688 15.57109375 -25.15234375 15.9296875 C-27.16332459 16.8684977 -27.16332459 16.8684977 -28 19 C-28.4626171 23.70327389 -28.64693939 25.92920376 -26.1875 30 C-21.49905343 32.94177039 -17.39129915 32.71460519 -12 32 C-7.12626706 30.37542235 -3.36301311 27.62793889 -1 23 C-0.0209775 19.02811079 0.55937833 15.06424164 1 11 C1.33 11 1.66 11 2 11 C2.32429071 17.07744814 2.49866785 21.75199823 -1 27 C-1.721875 27.66 -2.44375 28.32 -3.1875 29 C-5.3303123 30.95402822 -5.3303123 30.95402822 -5.25 34.25 C-5.1675 35.1575 -5.085 36.065 -5 37 C-4.01 37 -3.02 37 -2 37 C-2.30318245 39.82970285 -2.9670634 40.96493845 -4.9375 43.0625 C-13.12186848 48.24036577 -22.49354114 49.39612275 -31.89453125 47.37890625 C-38.73054803 45.27479712 -43.13658573 42.04855237 -47 36 C-50.28680325 29.11652653 -49.94265611 21.80515383 -47.4375 14.6875 C-44.67034849 8.57063876 -40.51212882 4.87834842 -34.375 2.25 C-22.89913949 -1.43631848 -11.81353813 -1.04694829 0 0 Z " fill="#0A2643" transform="translate(885,561)"/>
<path d="M0 0 C5.94 0 11.88 0 18 0 C18.515625 1.69125 19.03125 3.3825 19.5625 5.125 C21.65075874 10.78585469 23.82366597 13.93048704 29 17 C36.07197054 19.88952809 42.81638835 20.38259483 50.375 20.4375 C58.95675272 20.6350903 66.11807147 21.35566745 74 25 C71.46413378 27.71781177 69.28215185 29.62887059 65.875 31.125 C65.19179687 31.43695312 64.50859375 31.74890625 63.8046875 32.0703125 C55.15197838 34.9384807 46.68807003 35.33790098 37.625 35.3125 C36.48289063 35.32861328 35.34078125 35.34472656 34.1640625 35.36132812 C23.5065024 35.36738356 12.41702215 34.14812434 4 27 C-0.4217598 21.29450348 -0.13706501 15.08377399 -0.0625 8.1875 C-0.041875 5.485625 -0.02125 2.78375 0 0 Z " fill="#092544" transform="translate(182,508)"/>
<path d="M0 0 C7.1775 -0.12375 7.1775 -0.12375 14.5 -0.25 C15.99337891 -0.28641602 17.48675781 -0.32283203 19.02539062 -0.36035156 C26.47771157 -0.42248764 31.76945188 -0.26059541 38 4 C41.88851888 8.42019487 42.63797156 12.82016829 42.390625 18.6328125 C41.66269048 23.04409571 39.31936293 25.68063707 36.25 28.75 C28.8802798 32.844289 20.66504853 32.24073639 12.5 32.125 C8.375 32.08375 4.25 32.0425 0 32 C0 21.44 0 10.88 0 0 Z " fill="#F8F7F5" transform="translate(392,428)"/>
<path d="M0 0 C4.49625 -0.061875 8.9925 -0.12375 13.625 -0.1875 C15.03217285 -0.21481201 16.4393457 -0.24212402 17.88916016 -0.27026367 C19.01112793 -0.27775635 20.1330957 -0.28524902 21.2890625 -0.29296875 C23.00150146 -0.31653442 23.00150146 -0.31653442 24.74853516 -0.34057617 C29.776472 0.18607737 32.98452622 1.84730003 36.3125 5.625 C38.74015202 10.48030403 39.90845253 14.92194906 38.3359375 20.25 C36.39201862 24.54874744 34.46398884 27.10280474 30 29 C26.60267465 30.07158627 23.47345931 30.11506598 19.921875 30.09765625 C18.87612305 30.09515869 17.83037109 30.09266113 16.75292969 30.09008789 C15.43196289 30.08098389 14.11099609 30.07187988 12.75 30.0625 C8.5425 30.041875 4.335 30.02125 0 30 C0 20.1 0 10.2 0 0 Z " fill="#F8F8F6" transform="translate(392,381)"/>
<path d="M0 0 C1.05844664 10.08044422 1.05844664 10.08044422 -1.3828125 14.5078125 C-5.24289326 19.03630552 -8.68859251 21.59083183 -14.71875 22.3359375 C-22.26349497 22.44190302 -22.26349497 22.44190302 -26.125 20.125 C-29.02140922 16.84240289 -29.40361166 14.4396463 -29.34765625 10.03515625 C-28.74956627 6.53397784 -26.73943275 5.06979363 -24 3 C-16.81311525 -0.88480257 -7.92297185 -0.13107858 0 0 Z " fill="#F8F8F6" transform="translate(885,572)"/>
<path d="M0 0 C3.68665928 3.00951778 5.74963184 5.91719314 7.0625 10.5 C7.0625 12.48 7.0625 14.46 7.0625 16.5 C-4.4875 16.5 -16.0375 16.5 -27.9375 16.5 C-25.67371288 6.31295796 -25.67371288 6.31295796 -23.125 3.5625 C-22.64417969 3.01722656 -22.16335938 2.47195313 -21.66796875 1.91015625 C-15.87719962 -2.80873236 -6.6343344 -3.23835761 0 0 Z " fill="#F5F5F3" transform="translate(668.9375,544.5)"/>
<path d="M0 0 C4.16507424 1.7585869 6.20882468 3.85201505 8 8 C8.54957375 12.31807946 8.2941115 14.44328894 6.25 18.3125 C2.87464258 22.34417692 1.37421462 22.86701149 -3.875 23.375 C-8.18785966 23.26235068 -10.70279071 21.82617939 -14 19 C-16.58644464 15.5905957 -16.36503115 12.1613551 -16 8 C-12.8986288 0.81787723 -7.35687568 -1.08935482 0 0 Z " fill="#0A2541" transform="translate(485,361)"/>
<path d="M0 0 C3.02391552 1.73907588 5.41748661 3.83497322 7 7 C7.52999351 10.78566792 7.83021253 14.44856036 5.98828125 17.890625 C3.84136401 20.54687096 2.25877827 21.91374058 -1 23 C-6.01103128 23.3711875 -8.99128499 23.11788946 -13 20 C-15.81689603 17.47450701 -16.2730238 15.28115719 -16.5 11.625 C-16.3921679 8.18572341 -15.84195396 6.19469468 -13.6875 3.5 C-9.66363966 -0.24312589 -5.36427396 -0.93115699 0 0 Z " fill="#092542" transform="translate(761,361)"/>
<path d="M0 0 C7.26 0 14.52 0 22 0 C22 0.33 22 0.66 22 1 C15.07 1 8.14 1 1 1 C1 8.59 1 16.18 1 24 C4.52558594 23.98839844 8.05117187 23.97679687 11.68359375 23.96484375 C15.08243723 23.95705437 18.48127974 23.95097693 21.88012695 23.94506836 C24.24992312 23.94002659 26.61971615 23.93319335 28.98950195 23.92456055 C32.38754039 23.9124881 35.78553785 23.90677029 39.18359375 23.90234375 C40.25024765 23.89718246 41.31690155 23.89202118 42.4158783 23.88670349 C43.88729027 23.88659019 43.88729027 23.88659019 45.38842773 23.88647461 C46.25668686 23.884254 47.12494598 23.88203339 48.01951599 23.87974548 C50 24 50 24 51 25 C51.0883967 27.3756852 51.11530305 29.72208674 51.09765625 32.09765625 C51.0962413 32.80651474 51.09482635 33.51537323 51.09336853 34.24571228 C51.08775443 36.51801712 51.07519963 38.79022475 51.0625 41.0625 C51.05748681 42.59960796 51.05292359 44.13671745 51.04882812 45.67382812 C51.0386297 49.44928667 51.01905732 53.22453404 51 57 C58.26 57 65.52 57 73 57 C73 47.43 73 37.86 73 28 C73.33 28 73.66 28 74 28 C74 38.23 74 48.46 74 59 C65.75 59 57.5 59 49 59 C49 47.78 49 36.56 49 25 C32.83 25 16.66 25 0 25 C0 16.75 0 8.5 0 0 Z " fill="#D3790E" transform="translate(124,540)"/>
<path d="M0 0 C7.92 0.33 15.84 0.66 24 1 C24 10.57 24 20.14 24 30 C31.26 30 38.52 30 46 30 C46 20.1 46 10.2 46 0 C46.66 0 47.32 0 48 0 C48 10.56 48 21.12 48 32 C39.75 32 31.5 32 23 32 C23 22.1 23 12.2 23 2 C16.55293046 2.0789853 16.55293046 2.0789853 10.10620117 2.18017578 C8.89927612 2.18766846 8.89927612 2.18766846 7.66796875 2.1953125 C6.84578857 2.20578613 6.0236084 2.21625977 5.17651367 2.22705078 C3 2 3 2 0 0 Z " fill="#D68010" transform="translate(199,567)"/>
<path d="M0 0 C0.66 0.33 1.32 0.66 2 1 C0.82009775 1.80294647 -0.36945689 2.59171174 -1.5625 3.375 C-2.55443359 4.03628906 -2.55443359 4.03628906 -3.56640625 4.7109375 C-6 6 -6 6 -13 8 C-12.67 13.28 -12.34 18.56 -12 24 C-10.68 24 -9.36 24 -8 24 C-7.67 23.01 -7.34 22.02 -7 21 C-7 21.66 -7 22.32 -7 23 C-2.27350105 22.68271188 1.96283334 22.17103067 6.375 20.375 C10 19 10 19 13 20 C3.51530382 23.84078887 -4.71865255 27 -15 27 C-15 20.4 -15 13.8 -15 7 C-11.97265625 5.76302083 -8.9453125 4.52604167 -5.91796875 3.2890625 C-2.89269888 2.0520881 -2.89269888 2.0520881 0 0 Z " fill="#040C35" transform="translate(261,540)"/>
<path d="M0 0 C6.6 0 13.2 0 20 0 C17.75 10.125 17.75 10.125 14 15 C14 10.22828589 16.17779578 6.3846789 18 2 C12.39 2 6.78 2 1 2 C0.34 3.98 -0.32 5.96 -1 8 C-3.23251826 10.55404942 -5.96045874 12.48022937 -9 14 C-11.16410684 14.12244289 -13.33246523 14.17551142 -15.5 14.1875 C-16.6653125 14.20167969 -17.830625 14.21585938 -19.03125 14.23046875 C-22 14 -22 14 -24 12 C-23.13117188 12.03480469 -22.26234375 12.06960938 -21.3671875 12.10546875 C-12.66712117 12.54476133 -12.66712117 12.54476133 -5 9 C-2.69728343 6.01269202 -1.19115905 3.57347714 0 0 Z " fill="#060A15" transform="translate(508,580)"/>
<path d="M0 0 C0.99 0.33 1.98 0.66 3 1 C2.53956299 1.41644775 2.07912598 1.83289551 1.60473633 2.26196289 C-4.43285924 8.80108397 -3.35837042 18.82128818 -3.1875 27.0625 C-3.17396484 28.30966797 -3.16042969 29.55683594 -3.14648438 30.84179688 C-3.1113902 33.89498967 -3.06222267 36.9472599 -3 40 C-7.50038721 33.24941919 -6.57526189 23.81589149 -6 16 C-4.74331544 10.26451547 -3.27193589 4.90790384 0 0 Z " fill="#0D1521" transform="translate(655,412)"/>
<path d="M0 0 C2 2 2 2 4 11 C-2.93 11 -9.86 11 -17 11 C-17.33 9.35 -17.66 7.7 -18 6 C-17.01 6.495 -17.01 6.495 -16 7 C-16 7.66 -16 8.32 -16 9 C-10.06 9 -4.12 9 2 9 C1.34 7.35 0.68 5.7 0 4 C0 2.68 0 1.36 0 0 Z " fill="#2F3036" transform="translate(440,519)"/>
<path d="M0 0 C-16.22753389 6.75932254 -16.22753389 6.75932254 -24 7 C-24.66 6.34 -25.32 5.68 -26 5 C-24.35 4.67 -22.7 4.34 -21 4 C-20.67 3.01 -20.34 2.02 -20 1 C-20 1.66 -20 2.32 -20 3 C-15.27350105 2.68271188 -11.03716666 2.17103067 -6.625 0.375 C-3 -1 -3 -1 0 0 Z " fill="#0B1628" transform="translate(274,560)"/>
<path d="M0 0 C2.08379509 3.84700632 3.49686624 7.90054429 5 12 C6.32 11.34 7.64 10.68 9 10 C9.625 11.8125 9.625 11.8125 10 14 C9.01 15.485 9.01 15.485 8 17 C9.32 18.32 10.64 19.64 12 21 C11.67 21.66 11.34 22.32 11 23 C4.39759982 15.9574398 0.69435887 9.72102414 0 0 Z " fill="#081323" transform="translate(622,576)"/>
<path d="M0 0 C0 0.33 0 0.66 0 1 C-2.31 1.33 -4.62 1.66 -7 2 C-7 1.34 -7 0.68 -7 0 C-11.95 0 -16.9 0 -22 0 C-14.747431 -3.6262845 -7.55621347 -2.23887807 0 0 Z " fill="#171E28" transform="translate(616,395)"/>
<path d="M0 0 C0.99 0.33 1.98 0.66 3 1 C3.08078641 3.12438339 3.13909141 5.2496323 3.1875 7.375 C3.22230469 8.55835938 3.25710938 9.74171875 3.29296875 10.9609375 C3.19628906 11.96382813 3.09960938 12.96671875 3 14 C2.01 14.66 1.02 15.32 0 16 C0 10.72 0 5.44 0 0 Z " fill="#1D314A" transform="translate(730,429)"/>
<path d="M0 0 C0.33 0 0.66 0 1 0 C1.59770117 7.6538956 0.43947934 14.08338278 -3 21 C-3.66 21.33 -4.32 21.66 -5 22 C-4.7834375 21.40832031 -4.566875 20.81664062 -4.34375 20.20703125 C-2.23789396 14.25920947 -2.23789396 14.25920947 -2 8 C-2 7.01 -2 6.02 -2 5 C-1.34 5 -0.68 5 0 5 C0 3.35 0 1.7 0 0 Z " fill="#060C17" transform="translate(444,571)"/>
<path d="M0 0 C0.17273438 0.64453125 0.34546875 1.2890625 0.5234375 1.953125 C1.92982628 4.40445882 1.92982628 4.40445882 5.4765625 4.609375 C6.858573 4.67581781 8.2416781 4.7219252 9.625 4.75 C10.33140625 4.77964844 11.0378125 4.80929687 11.765625 4.83984375 C13.50980047 4.91055357 15.25490827 4.95754035 17 5 C17.33 4.34 17.66 3.68 18 3 C18 3.99 18 4.98 18 6 C11.73 6 5.46 6 -1 6 C-0.67 4.02 -0.34 2.04 0 0 Z " fill="#01030A" transform="translate(839,547)"/>
<path d="M0 0 C3.96 0 7.92 0 12 0 C12 0.33 12 0.66 12 1 C10.35 1 8.7 1 7 1 C6.67 2.32 6.34 3.64 6 5 C5.01 5 4.02 5 3 5 C2.67 4.01 2.34 3.02 2 2 C1.34 1.34 0.68 0.68 0 0 Z " fill="#0E3255" transform="translate(394,498)"/>
<path d="M0 0 C0.66 0.33 1.32 0.66 2 1 C1.23997083 2.31878578 0.46656347 3.6298684 -0.3125 4.9375 C-0.74175781 5.66839844 -1.17101562 6.39929688 -1.61328125 7.15234375 C-3 9 -3 9 -6 10 C-4.6302836 6.00499382 -2.74277578 3.19990508 0 0 Z " fill="#F4F5F4" transform="translate(481,546)"/>
<path d="M0 0 C4.62 0 9.24 0 14 0 C13.67 1.65 13.34 3.3 13 5 C12.61199219 4.51917969 12.22398437 4.03835938 11.82421875 3.54296875 C9.45911353 1.54250502 7.87308547 1.51123932 4.8125 1.3125 C3.91144531 1.24675781 3.01039063 1.18101562 2.08203125 1.11328125 C1.39496094 1.07589844 0.70789063 1.03851562 0 1 C0 0.67 0 0.34 0 0 Z " fill="#0E3257" transform="translate(512,582)"/>
<path d="M0 0 C0.66 0.99 1.32 1.98 2 3 C0.875 4.5625 0.875 4.5625 -1 6 C-4.1875 5.6875 -4.1875 5.6875 -7 5 C-6.01 4.34 -5.02 3.68 -4 3 C-2.66209359 2.00612666 -1.32781878 1.0073108 0 0 Z " fill="#D69116" transform="translate(247,524)"/>
<path d="M0 0 C0.66 0.33 1.32 0.66 2 1 C1.319375 1.61875 1.319375 1.61875 0.625 2.25 C-1.09686822 3.92669589 -1.09686822 3.92669589 -2 6.125 C-3 8 -3 8 -6 9 C-4.68775452 5.06326356 -3.08089673 2.77280706 0 0 Z " fill="#0B1320" transform="translate(466,535)"/>
<path d="M0 0 C2.97 0.99 5.94 1.98 9 3 C9 3.33 9 3.66 9 4 C6.36 4 3.72 4 1 4 C0.67 2.68 0.34 1.36 0 0 Z " fill="#0F3155" transform="translate(263,460)"/>
<path d="M0 0 C-0.639375 0.28875 -1.27875 0.5775 -1.9375 0.875 C-4.15206079 1.82823451 -4.15206079 1.82823451 -5 4 C-6.32 3.67 -7.64 3.34 -9 3 C-6.07868595 -0.19953443 -4.37453972 -1.45817991 0 0 Z " fill="#0C3055" transform="translate(594,397)"/>
<path d="M0 0 C0.66 0.33 1.32 0.66 2 1 C2 1.99 2 2.98 2 4 C3.32 4.33 4.64 4.66 6 5 C-0.15234375 4.4140625 -0.15234375 4.4140625 -2 4 C-2.33 3.34 -2.66 2.68 -3 2 C-2.01 1.34 -1.02 0.68 0 0 Z " fill="#0F2F52" transform="translate(590,472)"/>
<path d="M0 0 C4 0 4 0 6.25 2 C6.8275 2.66 7.405 3.32 8 4 C7.01 4.495 7.01 4.495 6 5 C3.98079663 3.69593116 1.98075027 2.36176581 0 1 C0 0.67 0 0.34 0 0 Z " fill="#051226" transform="translate(467,600)"/>
<path d="M0 0 C0.99 0.66 1.98 1.32 3 2 C1.02 4.97 1.02 4.97 -1 8 C-2 6 -2 6 -2 2 C-1.34 2 -0.68 2 0 2 C0 1.34 0 0.68 0 0 Z " fill="#0F1D2E" transform="translate(296,534)"/>
</svg>
