<?xml version="1.0" encoding="UTF-8"?>
<svg id="Layer_1" xmlns="http://www.w3.org/2000/svg" viewBox="0 0 729.84 365.1">
  <defs>
    <style>
      .cls-1 {
        fill: #113257;
      }

      .cls-2 {
        fill: #e7b820;
      }
    </style>
  </defs>
  <path class="cls-2" d="M153.54,218.36c1.95-.41,2.97-.83,4.16-1.75,1.94-1.5,2.98-2.76,3.27-5.03.67-5.28-2.28-8.51-6.16-11.24-3.32-2.34-7.16-3.56-10.94-4.89-12.23-4.29-24.85-6.11-37.8-5.87-1.94.04-2.48.61-2.41,2.48.29,7.69-.2,15.39.44,23.07.35,4.22,2.34,8.32,4.45,11.93.41.71.85,1.41,1.43,2,4.22,4.34,12.95,5.41,18.62,5.89,8.22.7,16.42.54,24.59-.72,2.01-.31,3.99-.77,5.99-1.17.04,1.24.1,2.47.13,3.71.11,3.91-.24,7.83.2,11.74-.93.57-.67,1.49-.67,2.32,0,6.97-.04,13.95.04,20.92.02,1.67-.54,2.12-2.16,2.09-4.87-.1-9.74-.08-14.6-.03-1.77.02-2.48-.48-2.45-2.45.13-7.37.02-14.74.08-22.1.01-1.47-.41-1.93-1.9-1.9-4.67.09-9.34.08-14,0-1.45-.03-1.36.78-1.4,1.74-.33,7.36-.26,14.73-.28,22.1,0,2.58-.05,2.59-2.68,2.58-4.87-.02-9.74-.07-14.6.03-1.76.04-2.44-.43-2.42-2.31.1-7.24-.02-14.47.09-21.71.03-1.88-.6-2.32-2.37-2.31-11.05.09-22.1.08-33.15.1-2.42,0-2.61-.16-2.62-2.54,0-5.07,0-10.13.03-15.2.01-2.57.04-2.57,2.7-2.6,3.68-.04,7.37-.17,11.05-.08,3.97.09,7.16-2.96,7.14-7.34-.17-32.04-.14-64.08-.18-96.11,0-.92,0-1.85-.17-2.75-.83-4.62-2.68-6.18-7.33-6.33-3.68-.12-7.36-.34-11.04-.36-1.62,0-1.98-.67-1.96-2.13.07-4.87.1-9.74-.02-14.6-.04-1.79.6-2.21,2.28-2.2,11.38.07,22.76-.01,34.14.1,2.07.02,2.49-.6,2.46-2.56-.12-7.5,0-15-.08-22.5-.02-1.8.66-2.23,2.31-2.2,5.26.07,10.53.07,15.79-.02,1.7-.03,2.31.5,2.29,2.25-.09,7.63-.01,15.26-.09,22.89-.02,1.63.49,2.17,2.13,2.13,4.27-.1,8.55-.11,12.83,0,1.65.04,2.16-.48,2.14-2.13-.07-7.63.02-15.26-.06-22.89-.02-1.74.5-2.27,2.23-2.23,5,.11,10,.1,15,0,1.77-.03,2.41.43,2.37,2.31-.14,7.69-.06,15.39-.2,23.08-.04,2.06.61,2.95,2.7,3.12,6.26.51,12.1,2.48,17.51,5.6,10.18,5.85,15.7,14.63,16.42,26.4.57,9.38-2.85,35.38-12.33,32.4-2.52-.79-8.81-2.11-11.28-3.01-1.39-.51-1.17-1.6-.94-2.64.76-3.4,1.73-6.76,2.32-10.18,1.19-6.95-.05-13.65-2.85-20.02-2.09-4.76-6.22-7.33-10.94-9.04-8.93-3.24-18.15-4.11-27.58-3.35-4.67.38-9.23,1.22-13.74,2.48-10.03,2.79-17.34,11.57-18.27,21.92-.52,5.81-.6,11.57,1.22,17.19,2.71,8.38,8.63,13.91,16.14,18.06,7,3.87,14.54,6.42,22,9.18,8.2,3.03,16.49,5.8,24.5,9.36,4.73,2.1,7.86,5.62,9.96,10.18.78,1.69.89,3.59.74,5.42-.46,5.72-1.3,13.94-15.02,20.17.21-.6,4.96-4.54,4.47-4.96-.34-.3-.89-.72-1.32-.86-2.99-1-8.54-1.63-11.6-2.3-.41-.09,1.62-.48,1.29-.34Z"/>
  <path class="cls-1" d="M159.5,248.54c-.44-3.91-.09-7.83-.2-11.74-.03-1.24-.09-2.47-.13-3.71,1.74-.76,3.46-1.59,5.23-2.28,13.48-5.24,18.69-17.27,16.71-30.7-.45-3.09-2.37-5.36-4.39-7.55-5.82-6.3-13.4-9.62-21.25-12.4-9.35-3.31-18.78-6.41-28.16-9.64-2.11-.73-4.21-1.53-6.22-2.5-10.45-5.09-14.5-14.12-14.54-25.09-.04-11.14,5.05-19.47,16.56-22.84,12.01-3.53,28.52-2.45,35.79,1.22.46.23-.48-.17,0,0,6.3,2.28,9.79,8.1,10.6,14.18.54,4.05.41,8.12.06,12.17-.18,2.1-1.93,3.71-4.04,3.73-2.7.02-5.4-.07-8.09.02-1.42.05-1.99-.38-2.02-1.86-.05-2.1-.17-4.22-.55-6.28-1.36-7.29-5.93-11.37-13.56-12.08-3.12-.29-6.29-.58-9.32.75-5.17,2.27-6.99,8.35-3.81,13,3.15,4.6,7.68,7.38,12.86,9,9.29,2.89,18.65,5.52,27.98,8.3,5.67,1.69,11.33,3.39,16.81,5.65,5.78,2.38,9.76,6.61,12.71,11.95,12.19,22.06,5.62,54.94-19.7,64.71-6.22,2.4-12.53,4.29-19.3,4.01Z"/>
  <path class="cls-1" d="M153.54,218.36c3.91,1.4,9.25,1.88,12.14,3.04.58.23,2.08.79,1.92,1.39-.09.34-1.57,1.38-1.85,1.59-4.24,3.15-8.56,4.32-13.85,4.91-8.24,1.02-16.52,1.17-24.79.22-3.75-.43-7.27-1.63-10.66-3.35-3.86-1.96-5.87-5.14-6.5-9.28-.66-4.38-.25-8.8-.29-13.2,0-.85.38-1.16,1.2-1.16,3.94.02,7.89.02,11.83,0,.8,0,1.21.38,1.4,1.1.12.44.28.88.4,1.32,1.88,7.49,6.72,11.59,14.3,12.74,4.91.75,9.82.7,14.75.67Z"/>
  <g>
    <g>
      <path class="cls-1" d="M309.22,150.75c0,13.42-10.51,21.25-30.65,21.25h-38.93v-78.3h36.69c18.79,0,28.86,7.94,28.86,20.36,0,8.05-4.03,13.98-10.07,17.23,8.39,2.68,14.09,9.28,14.09,19.46ZM254.19,105.12v21.59h20.58c10.07,0,15.77-3.58,15.77-10.74s-5.7-10.85-15.77-10.85h-20.58ZM294.57,149.3c0-7.83-5.93-11.3-16.89-11.3h-23.49v22.59h23.49c10.96,0,16.89-3.47,16.89-11.3Z"/>
      <path class="cls-1" d="M318.73,94.04c0-4.7,3.8-8.39,8.95-8.39s8.95,3.47,8.95,8.05c0,4.92-3.69,8.72-8.95,8.72s-8.95-3.69-8.95-8.39ZM320.63,112.28h13.98v59.73h-13.98v-59.73Z"/>
      <path class="cls-1" d="M386.07,168.76c-3.36,2.68-8.39,4.03-13.42,4.03-13.09,0-20.58-6.94-20.58-20.13v-28.75h-9.84v-11.18h9.84v-13.65h13.98v13.65h15.99v11.18h-15.99v28.41c0,5.82,2.91,8.95,8.28,8.95,2.91,0,5.7-.78,7.83-2.46l3.91,9.95Z"/>
      <path class="cls-1" d="M387.86,142.14c0-17.9,13.42-30.54,32.33-30.54,11.63,0,20.92,4.81,25.5,13.87l-10.74,6.26c-3.58-5.71-8.95-8.28-14.88-8.28-10.29,0-18.12,7.16-18.12,18.68s7.83,18.68,18.12,18.68c5.93,0,11.3-2.57,14.88-8.28l10.74,6.26c-4.59,8.95-13.87,13.98-25.5,13.98-18.9,0-32.33-12.75-32.33-30.65Z"/>
      <path class="cls-1" d="M449.17,142.14c0-17.9,13.42-30.54,31.77-30.54s31.88,12.64,31.88,30.54-13.31,30.65-31.88,30.65-31.77-12.75-31.77-30.65ZM498.72,142.14c0-11.41-7.61-18.68-17.79-18.68s-17.67,7.27-17.67,18.68,7.61,18.68,17.67,18.68,17.79-7.27,17.79-18.68Z"/>
      <path class="cls-1" d="M521.54,94.04c0-4.7,3.8-8.39,8.95-8.39s8.95,3.47,8.95,8.05c0,4.92-3.69,8.72-8.95,8.72s-8.95-3.69-8.95-8.39ZM523.44,112.28h13.98v59.73h-13.98v-59.73Z"/>
      <path class="cls-1" d="M611.81,137.78v34.23h-13.98v-32.44c0-10.63-5.26-15.77-14.2-15.77-9.96,0-16.67,6.04-16.67,18.01v30.2h-13.98v-59.73h13.31v7.72c4.59-5.48,11.86-8.39,20.58-8.39,14.32,0,24.94,8.17,24.94,26.17Z"/>
    </g>
    <g>
      <path class="cls-1" d="M233.05,264.01l5.03-11.3c6.26,5.03,16.22,8.61,25.84,8.61,12.19,0,17.34-4.36,17.34-10.18,0-16.89-46.53-5.82-46.53-34.9,0-12.64,10.07-23.38,31.54-23.38,9.4,0,19.24,2.46,26.06,6.93l-4.59,11.3c-7.05-4.14-14.77-6.15-21.59-6.15-12.08,0-17,4.7-17,10.63,0,16.67,46.42,5.82,46.42,34.56,0,12.53-10.18,23.27-31.65,23.27-12.19,0-24.38-3.8-30.87-9.4Z"/>
      <path class="cls-1" d="M300.95,242.42c0-17.9,13.42-30.54,32.33-30.54,11.63,0,20.92,4.81,25.5,13.87l-10.74,6.26c-3.58-5.71-8.95-8.28-14.88-8.28-10.29,0-18.12,7.16-18.12,18.68s7.83,18.68,18.12,18.68c5.93,0,11.3-2.57,14.88-8.28l10.74,6.26c-4.59,8.95-13.87,13.98-25.5,13.98-18.9,0-32.33-12.75-32.33-30.65Z"/>
      <path class="cls-1" d="M426.34,238.06v34.23h-13.98v-32.44c0-10.63-5.26-15.77-14.2-15.77-9.96,0-16.67,6.04-16.67,18.01v30.2h-13.98v-83h13.98v30.2c4.59-4.92,11.63-7.61,19.91-7.61,14.32,0,24.94,8.17,24.94,26.17Z"/>
      <path class="cls-1" d="M497.82,246.9h-46.87c1.68,8.72,8.95,14.32,19.35,14.32,6.71,0,11.97-2.13,16.22-6.49l7.49,8.61c-5.37,6.38-13.76,9.73-24.05,9.73-20.02,0-33-12.86-33-30.65s13.09-30.54,30.87-30.54,30.2,12.19,30.2,30.87c0,1.12-.11,2.8-.22,4.14ZM450.84,237.61h33.89c-1.12-8.61-7.72-14.54-16.89-14.54s-15.66,5.82-17,14.54Z"/>
      <path class="cls-1" d="M608.56,238.06v34.23h-13.98v-32.44c0-10.63-4.92-15.77-13.42-15.77-9.17,0-15.55,6.04-15.55,17.9v30.31h-13.98v-32.44c0-10.63-4.92-15.77-13.42-15.77-9.28,0-15.55,6.04-15.55,17.9v30.31h-13.98v-59.73h13.31v7.61c4.47-5.37,11.41-8.28,19.58-8.28,8.72,0,15.99,3.24,20.13,9.95,4.81-6.15,12.86-9.95,22.37-9.95,14.43,0,24.5,8.17,24.5,26.17Z"/>
      <path class="cls-1" d="M673.67,237.28v35.01h-13.2v-7.27c-3.36,5.15-9.84,8.05-18.79,8.05-13.65,0-22.26-7.49-22.26-17.9s6.71-17.79,24.83-17.79h15.44v-.9c0-8.17-4.92-12.98-14.88-12.98-6.71,0-13.65,2.24-18.12,5.93l-5.48-10.18c6.38-4.92,15.66-7.38,25.28-7.38,17.23,0,27.18,8.17,27.18,25.39ZM659.69,253.61v-6.93h-14.43c-9.51,0-12.08,3.58-12.08,7.94,0,5.03,4.25,8.28,11.41,8.28s12.75-3.13,15.1-9.28Z"/>
    </g>
  </g>
</svg>